<mxfile host="app.diagrams.net" modified="2022-03-01T13:35:24.580Z" agent="5.0 (Windows NT 10.0; Win64; x64) AppleWebKit/537.36 (KHTML, like Gecko) Chrome/98.0.4758.102 Safari/537.36" etag="6eYcfGKg5xEmTTrIYiSv" version="16.6.4" type="github">
  <diagram id="C5RBs43oDa-KdzZeNtuy" name="Page-1">
    <mxGraphModel dx="211" dy="547" grid="1" gridSize="10" guides="1" tooltips="1" connect="1" arrows="1" fold="1" page="1" pageScale="1" pageWidth="827" pageHeight="1169" math="0" shadow="0">
      <root>
        <mxCell id="WIyWlLk6GJQsqaUBKTNV-0" />
        <mxCell id="WIyWlLk6GJQsqaUBKTNV-1" parent="WIyWlLk6GJQsqaUBKTNV-0" />
        <mxCell id="QkcTArI9nJqgQDadAh0b-4" style="edgeStyle=orthogonalEdgeStyle;rounded=0;orthogonalLoop=1;jettySize=auto;html=1;entryX=0;entryY=0.5;entryDx=0;entryDy=0;fontSize=15;" edge="1" parent="WIyWlLk6GJQsqaUBKTNV-1" source="QkcTArI9nJqgQDadAh0b-0" target="QkcTArI9nJqgQDadAh0b-1">
          <mxGeometry relative="1" as="geometry" />
        </mxCell>
        <mxCell id="QkcTArI9nJqgQDadAh0b-0" value="&lt;b&gt;&lt;font style=&quot;font-size: 15px&quot;&gt;視窗切割&lt;/font&gt;&lt;/b&gt;" style="rounded=1;whiteSpace=wrap;html=1;fillColor=#d5e8d4;strokeColor=#82b366;" vertex="1" parent="WIyWlLk6GJQsqaUBKTNV-1">
          <mxGeometry x="910" y="50" width="110" height="50" as="geometry" />
        </mxCell>
        <mxCell id="QkcTArI9nJqgQDadAh0b-5" style="edgeStyle=orthogonalEdgeStyle;rounded=0;orthogonalLoop=1;jettySize=auto;html=1;entryX=0;entryY=0.5;entryDx=0;entryDy=0;fontSize=15;" edge="1" parent="WIyWlLk6GJQsqaUBKTNV-1" source="QkcTArI9nJqgQDadAh0b-1" target="QkcTArI9nJqgQDadAh0b-2">
          <mxGeometry relative="1" as="geometry" />
        </mxCell>
        <mxCell id="QkcTArI9nJqgQDadAh0b-1" value="&lt;span style=&quot;font-size: 15px&quot;&gt;&lt;b&gt;特徵擷取&lt;/b&gt;&lt;/span&gt;" style="rounded=1;whiteSpace=wrap;html=1;fillColor=#d5e8d4;strokeColor=#82b366;" vertex="1" parent="WIyWlLk6GJQsqaUBKTNV-1">
          <mxGeometry x="1060" y="50" width="110" height="50" as="geometry" />
        </mxCell>
        <mxCell id="QkcTArI9nJqgQDadAh0b-6" style="edgeStyle=orthogonalEdgeStyle;rounded=0;orthogonalLoop=1;jettySize=auto;html=1;entryX=0;entryY=0.5;entryDx=0;entryDy=0;fontSize=15;" edge="1" parent="WIyWlLk6GJQsqaUBKTNV-1" source="QkcTArI9nJqgQDadAh0b-2" target="QkcTArI9nJqgQDadAh0b-3">
          <mxGeometry relative="1" as="geometry" />
        </mxCell>
        <mxCell id="QkcTArI9nJqgQDadAh0b-2" value="&lt;span style=&quot;font-size: 15px&quot;&gt;&lt;b&gt;維度縮減&lt;/b&gt;&lt;/span&gt;" style="rounded=1;whiteSpace=wrap;html=1;fillColor=#d5e8d4;strokeColor=#82b366;" vertex="1" parent="WIyWlLk6GJQsqaUBKTNV-1">
          <mxGeometry x="1210" y="50" width="110" height="50" as="geometry" />
        </mxCell>
        <mxCell id="QkcTArI9nJqgQDadAh0b-9" style="edgeStyle=orthogonalEdgeStyle;rounded=0;orthogonalLoop=1;jettySize=auto;html=1;entryX=0.5;entryY=0;entryDx=0;entryDy=0;fontSize=15;" edge="1" parent="WIyWlLk6GJQsqaUBKTNV-1" source="QkcTArI9nJqgQDadAh0b-3" target="QkcTArI9nJqgQDadAh0b-8">
          <mxGeometry relative="1" as="geometry" />
        </mxCell>
        <mxCell id="QkcTArI9nJqgQDadAh0b-3" value="&lt;span style=&quot;font-size: 15px&quot;&gt;&lt;b&gt;模型預測&lt;/b&gt;&lt;/span&gt;" style="rounded=1;whiteSpace=wrap;html=1;fillColor=#d5e8d4;strokeColor=#82b366;" vertex="1" parent="WIyWlLk6GJQsqaUBKTNV-1">
          <mxGeometry x="1370" y="50" width="110" height="50" as="geometry" />
        </mxCell>
        <mxCell id="QkcTArI9nJqgQDadAh0b-8" value="&lt;span style=&quot;color: rgb(0 , 0 , 0) ; font-family: &amp;#34;helvetica&amp;#34; ; font-size: 12px ; font-style: normal ; letter-spacing: normal ; text-align: center ; text-indent: 0px ; text-transform: none ; word-spacing: 0px ; background-color: rgb(248 , 249 , 250) ; display: inline ; float: none&quot;&gt;&lt;b&gt;藉由選擇兼具運算速度以及預測準確性的模型和合適的FOG定義方式，來達到有效及時提醒病患可能發生的危險&lt;/b&gt;&lt;/span&gt;" style="text;whiteSpace=wrap;html=1;fontSize=15;fillColor=#fff2cc;strokeColor=#d6b656;" vertex="1" parent="WIyWlLk6GJQsqaUBKTNV-1">
          <mxGeometry x="1335" y="140" width="180" height="80" as="geometry" />
        </mxCell>
      </root>
    </mxGraphModel>
  </diagram>
</mxfile>
